<svg xmlns="http://www.w3.org/2000/svg" width="1200" height="1494" viewBox="0 0 1200 1494">
<style>
text { font-family: "Segoe UI", Arial, sans-serif; fill: #111827; }
.small { font-size: 12px; fill: #4b5563; }
.label { font-size: 14px; }
.title { font-size: 24px; font-weight: 700; }
.subtitle { font-size: 14px; fill: #374151; }
.tick { font-size: 12px; fill: #6b7280; }
.grid { stroke: #e5e7eb; stroke-width: 1; }
.axis { stroke: #9ca3af; stroke-width: 1.5; }
</style>
<rect x="0" y="0" width="1200" height="1494" fill="#ffffff" />
<text class="title" x="320" y="36">Local Model Benchmark Graph</text>
<text class="subtitle" x="320" y="60">Built from local zips in C:\Users\kai99\Desktop\models plus any saved virtual runtime rows. Common-benchmark scores come from the saved expanded sweep. v39 is recipe-eval only.</text>
<text class="small" x="320" y="82">Duplicate downloads and alternate packaging were collapsed so each distinct local model family appears once, and runtime-only rows are shown without zip files.</text>
<line class="grid" x1="320.00" y1="320" x2="320.00" y2="1392" />
<text class="tick" x="320.00" y="1414" text-anchor="middle">0.00</text>
<line class="grid" x1="472.00" y1="320" x2="472.00" y2="1392" />
<text class="tick" x="472.00" y="1414" text-anchor="middle">0.05</text>
<line class="grid" x1="624.00" y1="320" x2="624.00" y2="1392" />
<text class="tick" x="624.00" y="1414" text-anchor="middle">0.10</text>
<line class="grid" x1="776.00" y1="320" x2="776.00" y2="1392" />
<text class="tick" x="776.00" y="1414" text-anchor="middle">0.15</text>
<line class="grid" x1="928.00" y1="320" x2="928.00" y2="1392" />
<text class="tick" x="928.00" y="1414" text-anchor="middle">0.20</text>
<line class="grid" x1="1080.00" y1="320" x2="1080.00" y2="1392" />
<text class="tick" x="1080.00" y="1414" text-anchor="middle">0.25</text>
<line class="axis" x1="320" y1="1390" x2="1080" y2="1390" />
<text class="label" x="308" y="335" text-anchor="end">v40_benchmax</text>
<rect x="320" y="319" width="739.73" height="18" rx="4" fill="#db2777" opacity="0.92" />
<text class="small" x="1067.73" y="334">0.243</text>
<text class="small" x="1092" y="334">common</text>
<text class="label" x="308" y="369" text-anchor="end">omni_collective_v8</text>
<rect x="320" y="353" width="648.53" height="18" rx="4" fill="#db2777" opacity="0.92" />
<text class="small" x="976.53" y="368">0.213</text>
<text class="small" x="1092" y="368">common</text>
<text class="label" x="308" y="403" text-anchor="end">v33_final</text>
<rect x="320" y="387" width="567.47" height="18" rx="4" fill="#2563eb" opacity="0.92" />
<text class="small" x="895.47" y="402">0.187</text>
<text class="small" x="1092" y="402">common</text>
<text class="label" x="308" y="437" text-anchor="end">v39_final</text>
<rect x="320" y="421" width="547.20" height="18" rx="4" fill="#2563eb" opacity="0.92" />
<text class="small" x="875.20" y="436">0.180</text>
<line x1="486.90" y1="417" x2="486.90" y2="443" stroke="#b91c1c" stroke-width="2" />
<circle cx="486.90" cy="430" r="5" fill="#b91c1c" />
<text class="small" x="496.90" y="422">recipe 0.055</text>
<text class="small" x="1092" y="436">common</text>
<text class="label" x="308" y="471" text-anchor="end">omni_collective_v41</text>
<rect x="320" y="455" width="526.93" height="18" rx="4" fill="#db2777" opacity="0.92" />
<text class="small" x="854.93" y="470">0.173</text>
<text class="small" x="1092" y="470">common</text>
<text class="label" x="308" y="505" text-anchor="end">omni_collective_v1</text>
<rect x="320" y="489" width="496.53" height="18" rx="4" fill="#db2777" opacity="0.92" />
<text class="small" x="824.53" y="504">0.163</text>
<text class="small" x="1092" y="504">common</text>
<text class="label" x="308" y="539" text-anchor="end">v34_final</text>
<rect x="320" y="523" width="486.40" height="18" rx="4" fill="#2563eb" opacity="0.92" />
<text class="small" x="814.40" y="538">0.160</text>
<text class="small" x="1092" y="538">common alias</text>
<text class="label" x="308" y="573" text-anchor="end">v36_native</text>
<rect x="320" y="557" width="466.13" height="18" rx="4" fill="#15803d" opacity="0.92" />
<text class="small" x="794.13" y="572">0.153</text>
<text class="small" x="1092" y="572">common</text>
<text class="label" x="308" y="607" text-anchor="end">v35_final</text>
<rect x="320" y="591" width="466.13" height="18" rx="4" fill="#2563eb" opacity="0.92" />
<text class="small" x="794.13" y="606">0.153</text>
<text class="small" x="1092" y="606">common alias</text>
<text class="label" x="308" y="641" text-anchor="end">three_d_generation_micro_v1</text>
<rect x="320" y="625" width="425.60" height="18" rx="4" fill="#0891b2" opacity="0.92" />
<text class="small" x="753.60" y="640">0.140</text>
<text class="small" x="1092" y="640">common</text>
<text class="label" x="308" y="675" text-anchor="end">protein_folding_micro_v1</text>
<rect x="320" y="659" width="405.33" height="18" rx="4" fill="#6d28d9" opacity="0.92" />
<text class="small" x="733.33" y="674">0.133</text>
<text class="small" x="1092" y="674">common</text>
<text class="label" x="308" y="709" text-anchor="end">omni_collective_v2</text>
<rect x="320" y="693" width="374.93" height="18" rx="4" fill="#db2777" opacity="0.92" />
<text class="small" x="702.93" y="708">0.123</text>
<text class="small" x="1092" y="708">common</text>
<text class="label" x="308" y="743" text-anchor="end">omni_collective_v7</text>
<rect x="320" y="727" width="324.27" height="18" rx="4" fill="#db2777" opacity="0.92" />
<text class="small" x="652.27" y="742">0.107</text>
<text class="small" x="1092" y="742">common</text>
<text class="label" x="308" y="777" text-anchor="end">omni_collective_v5</text>
<rect x="320" y="761" width="283.73" height="18" rx="4" fill="#db2777" opacity="0.92" />
<text class="small" x="611.73" y="776">0.093</text>
<text class="small" x="1092" y="776">common</text>
<text class="label" x="308" y="811" text-anchor="end">omni_collective_v4</text>
<rect x="320" y="795" width="273.60" height="18" rx="4" fill="#db2777" opacity="0.92" />
<text class="small" x="601.60" y="810">0.090</text>
<text class="small" x="1092" y="810">common</text>
<text class="label" x="308" y="845" text-anchor="end">omni_collective_v6</text>
<rect x="320" y="829" width="222.93" height="18" rx="4" fill="#db2777" opacity="0.92" />
<text class="small" x="550.93" y="844">0.073</text>
<text class="small" x="1092" y="844">common</text>
<text class="label" x="308" y="879" text-anchor="end">v31_image_variant</text>
<rect x="320" y="863" width="202.67" height="18" rx="4" fill="#6b7280" opacity="0.92" />
<text class="small" x="530.67" y="878">0.067</text>
<text class="small" x="1092" y="878">common alias</text>
<text class="label" x="308" y="913" text-anchor="end">v31_final</text>
<rect x="320" y="897" width="202.67" height="18" rx="4" fill="#2563eb" opacity="0.92" />
<text class="small" x="530.67" y="912">0.067</text>
<text class="small" x="1092" y="912">common</text>
<text class="label" x="308" y="947" text-anchor="end">omni_collective_v3</text>
<rect x="320" y="931" width="202.67" height="18" rx="4" fill="#db2777" opacity="0.92" />
<text class="small" x="530.67" y="946">0.067</text>
<text class="small" x="1092" y="946">common</text>
<text class="label" x="308" y="981" text-anchor="end">v32_final</text>
<rect x="320" y="965" width="192.53" height="18" rx="4" fill="#2563eb" opacity="0.92" />
<text class="small" x="520.53" y="980">0.063</text>
<text class="small" x="1092" y="980">common</text>
<text class="label" x="308" y="1015" text-anchor="end">qwen_v28</text>
<rect x="320" y="999" width="60.80" height="18" rx="4" fill="#d97706" opacity="0.92" />
<text class="small" x="388.80" y="1014">0.020</text>
<text class="small" x="1092" y="1014">common</text>
<text class="label" x="308" y="1049" text-anchor="end">v38_native_xlite_fp16</text>
<rect x="320" y="1033" width="40.53" height="18" rx="4" fill="#15803d" opacity="0.92" />
<text class="small" x="368.53" y="1048">0.013</text>
<text class="small" x="1092" y="1048">common alias</text>
<text class="label" x="308" y="1083" text-anchor="end">v38_native_xlite</text>
<rect x="320" y="1067" width="40.53" height="18" rx="4" fill="#15803d" opacity="0.92" />
<text class="small" x="368.53" y="1082">0.013</text>
<text class="small" x="1092" y="1082">common</text>
<text class="label" x="308" y="1117" text-anchor="end">v37_native_lite</text>
<rect x="320" y="1101" width="40.53" height="18" rx="4" fill="#15803d" opacity="0.92" />
<text class="small" x="368.53" y="1116">0.013</text>
<text class="small" x="1092" y="1116">common</text>
<text class="label" x="308" y="1151" text-anchor="end">v30_lite_fp16</text>
<rect x="320" y="1135" width="30.40" height="18" rx="4" fill="#2563eb" opacity="0.92" />
<text class="small" x="358.40" y="1150">0.010</text>
<text class="small" x="1092" y="1150">common</text>
<text class="label" x="308" y="1185" text-anchor="end">math_equation_micro_v1</text>
<rect x="320" y="1169" width="30.40" height="18" rx="4" fill="#0f766e" opacity="0.92" />
<text class="small" x="358.40" y="1184">0.010</text>
<text class="small" x="1092" y="1184">common</text>
<text class="label" x="308" y="1219" text-anchor="end">qwen_v30_experimental</text>
<rect x="320" y="1203" width="10.13" height="18" rx="4" fill="#d97706" opacity="0.92" />
<text class="small" x="338.13" y="1218">0.003</text>
<text class="small" x="1092" y="1218">common</text>
<text class="label" x="308" y="1253" text-anchor="end">auto_collective_loop_s5</text>
<rect x="320" y="1237" width="1.00" height="18" rx="4" fill="#475569" opacity="0.92" />
<text class="small" x="329.00" y="1252">0.000</text>
<text class="small" x="1092" y="1252">runtime</text>
<text class="label" x="308" y="1287" text-anchor="end">science_vision_micro_v1</text>
<rect x="320" y="1271" width="760" height="18" rx="4" fill="#f9fafb" stroke="#d1d5db" stroke-dasharray="4 4" />
<text class="small" x="328" y="1286">no common-benchmark score</text>
<text class="small" x="1092" y="1286">specialist_only</text>
<text class="label" x="308" y="1321" text-anchor="end">dcgan_v2_in_progress</text>
<rect x="320" y="1305" width="760" height="18" rx="4" fill="#f9fafb" stroke="#d1d5db" stroke-dasharray="4 4" />
<text class="small" x="328" y="1320">no common-benchmark score</text>
<text class="small" x="1092" y="1320">specialist_only</text>
<text class="label" x="308" y="1355" text-anchor="end">dcgan_mnist_model</text>
<rect x="320" y="1339" width="760" height="18" rx="4" fill="#f9fafb" stroke="#d1d5db" stroke-dasharray="4 4" />
<text class="small" x="328" y="1354">no common-benchmark score</text>
<text class="small" x="1092" y="1354">specialist_only</text>
<rect x="320" y="86" width="12" height="12" fill="#db2777" />
<text class="small" x="338" y="96">Omni fused multimodal model</text>
<rect x="320" y="104" width="12" height="12" fill="#2563eb" />
<text class="small" x="338" y="114">Champion-family text model</text>
<rect x="320" y="122" width="12" height="12" fill="#15803d" />
<text class="small" x="338" y="132">Native image-capable checkpoint</text>
<rect x="320" y="140" width="12" height="12" fill="#0891b2" />
<text class="small" x="338" y="150">3d</text>
<rect x="320" y="158" width="12" height="12" fill="#6d28d9" />
<text class="small" x="338" y="168">Protein-folding specialist model</text>
<rect x="320" y="176" width="12" height="12" fill="#6b7280" />
<text class="small" x="338" y="186">Wrapper or alias artifact</text>
<rect x="320" y="194" width="12" height="12" fill="#d97706" />
<text class="small" x="338" y="204">Qwen adapter scored on the common benchmark sweep</text>
<rect x="320" y="212" width="12" height="12" fill="#0f766e" />
<text class="small" x="338" y="222">Math specialist model</text>
<rect x="320" y="230" width="12" height="12" fill="#475569" />
<text class="small" x="338" y="240">Prompt-routed multimodel runtime benchmark</text>
<rect x="320" y="248" width="12" height="12" fill="#7c3aed" />
<text class="small" x="338" y="258">Vision specialist artifact</text>
<rect x="320" y="266" width="12" height="12" fill="#b91c1c" />
<text class="small" x="338" y="276">GAN image-generation specialist</text>
<circle cx="325" cy="298" r="5" fill="#b91c1c" />
<text class="small" x="338" y="302">Recipe holdout marker when no common-benchmark run exists</text>
<text class="small" x="320" y="1468">Generated 2026-04-10 10:35 UTC from output/benchmark_all_models_common_plus_summary_20260410_runtime.json and the local models directory.</text>
</svg>